<?xml version="1.0" encoding="UTF-8"?>
<svg id="Layer_1" data-name="Layer 1" xmlns="http://www.w3.org/2000/svg" width="737.77" height="127.06" viewBox="0 0 737.77 127.06">
  <g>
    <g>
      <path d="M130.18,52.93c0,1.99-3.01,3.65-5,3.65h-7.53c-1.99,0-4.28-1.63-4.28-3.62l-.02-10.1c0-.54-.06-3.31-.58-5.24-.17-.65-.86-2.04-1.62-2.57-1.88-1.29-4.74-.81-6.77-.83l-7.27-.28c-3.39-.47-5.52-1.7-6.22-4.76l-.52-10.11c-.26-1.93-2.93-3.99-4.52-3.88l-20.37-.08s-.2.01-.36-.01c-.18.02-.37.01-.42.01l-20.37.08c-1.59-.11-4.26,1.95-4.52,3.88l-.52,10.11c-.7,3.06-2.83,4.29-6.22,4.76l-7.27.28c-2.03.02-4.89-.46-6.77.83-.76.53-1.45,1.92-1.62,2.57-.52,1.93-.58,4.7-.58,5.24l-.02,10.1c0,1.99-2.29,3.62-4.28,3.62h-7.53c-1.99,0-5-1.66-5-3.65l.16-4.04c.8-5.99,2.62-15.42,8.88-15.42l4.72-.68c1.1,0,2.77-1.37,2.77-2.46l.36-3.96c0-7.17,4.17-11.25,11.34-11.25l6.74-.53c1.1,0,2.44-1.42,2.89-2.42,1.87-4.09,2.56-5.9,4.77-8.12,2.04-2.04,3.99-2.9,7.92-3.31,5.69-.58,7.29-.54,9.28-.66.39-.02,1.21-.03,2.15-.04h.01c1.09-.02,2.35-.03,3.31-.03h.36c.81.01,1.71.01,2.53.02.94.02,1.77.03,2.16.05,2,.12,3.59.08,9.28.66,3.93.41,5.88,1.27,7.92,3.31,2.21,2.22,2.9,4.03,4.77,8.12.45,1,1.79,2.42,2.89,2.42l6.75.53c7.16,0,11.33,4.08,11.33,11.25l.36,3.96c0,1.09,1.67,2.46,2.77,2.46l4.72.68c6.26,0,8.08,9.43,8.88,15.42l.16,4.04Z"/>
      <path d="M68.19.03c-.82-.01-1.72-.01-2.53-.02.67,0,1.14,0,1.18,0h1.32s.01,0,.03.03Z"/>
    </g>
    <g>
      <path d="M130.18,74.13c0-1.99-3.01-3.65-5-3.65h-7.53c-1.99,0-4.28,1.63-4.28,3.62l-.02,10.1c0,.54-.06,3.31-.58,5.24-.17.65-.86,2.04-1.62,2.57-1.88,1.29-4.74.81-6.77.83l-7.27.28c-3.39.47-5.52,1.7-6.22,4.76l-.52,10.11c-.26,1.93-2.93,3.99-4.52,3.88l-20.37.08s-.2-.01-.36.01c-.18-.02-.37-.01-.42-.01l-20.37-.08c-1.59.11-4.26-1.95-4.52-3.88l-.52-10.11c-.7-3.06-2.83-4.29-6.22-4.76l-7.27-.28c-2.03-.02-4.89.46-6.77-.83-.76-.53-1.45-1.92-1.62-2.57-.52-1.93-.58-4.7-.58-5.24l-.02-10.1c0-1.99-2.29-3.62-4.28-3.62h-7.53c-1.99,0-5,1.66-5,3.65l.16,4.04c.8,5.99,2.62,15.42,8.88,15.42l4.72.68c1.1,0,2.77,1.37,2.77,2.46l.36,3.96c0,7.17,4.17,11.25,11.34,11.25l6.74.53c1.1,0,2.44,1.42,2.89,2.42,1.87,4.09,2.56,5.9,4.77,8.12,2.04,2.04,3.99,2.9,7.92,3.31,5.69.58,7.29.54,9.28.66.39.02,1.21.03,2.15.04h.01c1.09.02,2.35.03,3.31.03h.36c.81-.01,1.71-.01,2.53-.02.94-.02,1.77-.03,2.16-.05,2-.12,3.59-.08,9.28-.66,3.93-.41,5.88-1.27,7.92-3.31,2.21-2.22,2.9-4.03,4.77-8.12.45-1,1.79-2.42,2.89-2.42l6.75-.53c7.16,0,11.33-4.08,11.33-11.25l.36-3.96c0-1.09,1.67-2.46,2.77-2.46l4.72-.68c6.26,0,8.08-9.43,8.88-15.42l.16-4.04Z"/>
      <path d="M68.19,127.03c-.82.01-1.72.01-2.53.02.67,0,1.14,0,1.18,0h1.32s.01,0,.03-.03Z"/>
    </g>
  </g>
  <g>
    <path d="M207.14,100.06c0-1.36.16-2.52.48-3.48,3.6-.56,6.4-1.44,8.4-2.64l-6.12-18.6h-26.16l-6.36,19.32c2.48,1.12,5.48,1.76,9,1.92,0,.88-.16,2.04-.48,3.48h-22.08c0-1.04.16-2.2.48-3.48,2.64-.4,4.64-1.14,6-2.22,1.36-1.08,2.36-2.54,3-4.38l21.36-63.72c1.92-.72,4.52-1.08,7.8-1.08l21.12,64.68c.72,2.32,1.84,3.98,3.36,4.98,1.52,1,3.68,1.58,6.48,1.74-.16,1.6-.36,2.76-.6,3.48h-25.68ZM185.06,71.02h23.52l-12-36.84-1.2,5.16-10.32,31.68Z"/>
    <path d="M288.14,61.9v32.76c2.56.96,5.36,1.56,8.4,1.8,0,1.12-.08,2.32-.24,3.6h-24.48c-.08-.96-.04-2.16.12-3.6,2.88-.32,4.86-.88,5.94-1.68,1.08-.8,1.62-2.2,1.62-4.2v-27.96c0-3.92-.92-6.92-2.76-9-1.84-2.08-4.4-3.12-7.68-3.12-6.96,0-12.16,4.16-15.6,12.48v31.68c2.24.96,4.96,1.56,8.16,1.8,0,1.44-.12,2.64-.36,3.6h-24.6c-.16-1.2-.08-2.4.24-3.6,2.96-.32,5.02-.88,6.18-1.68,1.16-.8,1.74-2.2,1.74-4.2v-38.16c-2.32-.08-4.12-.12-5.4-.12h-3c0-.96.16-2,.48-3.12,5.28-2.08,10.48-3.56,15.6-4.44.48,3.04.8,6.96.96,11.76,4.08-8.32,10.28-12.48,18.6-12.48,4.72,0,8.58,1.52,11.58,4.56,3,3.04,4.5,7.48,4.5,13.32Z"/>
    <path d="M337.81,101.5c-2.08,0-3.88-.58-5.4-1.74-1.52-1.16-2.52-2.78-3-4.86-4,4.4-8.5,6.6-13.5,6.6s-8.98-1.42-11.94-4.26c-2.96-2.84-4.44-6.5-4.44-10.98,0-8.8,6.08-14.52,18.24-17.16l11.4-2.52v-5.28c0-3.6-.74-6.24-2.22-7.92-1.48-1.68-4.26-2.52-8.34-2.52s-8.88.96-14.4,2.88l-1.56-2.4c5.92-4.88,12.56-7.32,19.92-7.32,4.88,0,8.66,1.44,11.34,4.32,2.68,2.88,4.02,6.88,4.02,12v28.44c0,2.4.28,4.08.84,5.04.56.96,1.46,1.44,2.7,1.44s2.78-.2,4.62-.6l.72,1.44c-2.72,3.6-5.72,5.4-9,5.4ZM308.65,85.78c0,2.96.86,5.26,2.58,6.9,1.72,1.64,4.02,2.46,6.9,2.46,4.4,0,8.08-1.6,11.04-4.8v-19.56l-8.52,2.16c-8,2.16-12,6.44-12,12.84Z"/>
    <path d="M436.33,61.9v32.76c2.48.96,5.28,1.56,8.4,1.8,0,1.44-.12,2.64-.36,3.6h-24.48c-.16-1.2-.08-2.4.24-3.6,2.88-.32,4.84-.88,5.88-1.68,1.04-.8,1.56-2.2,1.56-4.2v-27.96c0-3.92-.92-6.92-2.76-9-1.84-2.08-4.36-3.12-7.56-3.12-7.04,0-12.28,4.16-15.72,12.48v31.68c2.24.96,4.96,1.56,8.16,1.8,0,1.44-.12,2.64-.36,3.6h-24.12c-.08-.96-.04-2.16.12-3.6,2.88-.32,4.86-.88,5.94-1.68,1.08-.8,1.62-2.2,1.62-4.2v-27.96c0-3.92-.92-6.92-2.76-9-1.84-2.08-4.4-3.12-7.68-3.12-6.96,0-12.16,4.16-15.6,12.48v31.68c2.24.96,4.96,1.56,8.16,1.8,0,1.44-.12,2.64-.36,3.6h-24.6c-.16-1.2-.08-2.4.24-3.6,2.96-.32,5.02-.88,6.18-1.68,1.16-.8,1.74-2.2,1.74-4.2v-38.16c-2.32-.08-4.12-.12-5.4-.12h-3c0-.96.16-2,.48-3.12,5.28-2.08,10.48-3.56,15.6-4.44.48,3.04.8,6.96.96,11.76,4.08-8.32,10.28-12.48,18.6-12.48,4,0,7.42,1.12,10.26,3.36,2.84,2.24,4.66,5.52,5.46,9.84,4.08-8.8,10.4-13.2,18.96-13.2,4.72,0,8.6,1.54,11.64,4.62,3.04,3.08,4.56,7.5,4.56,13.26Z"/>
    <path d="M473.41,44.02c7.68,0,13.82,2.62,18.42,7.86,4.6,5.24,6.9,12.18,6.9,20.82s-2.36,15.6-7.08,20.88c-4.72,5.28-10.98,7.92-18.78,7.92s-13.94-2.62-18.42-7.86c-4.48-5.24-6.72-12.18-6.72-20.82s2.36-15.6,7.08-20.88c4.72-5.28,10.92-7.92,18.6-7.92ZM461.35,90.04c2.92,4.28,7.06,6.42,12.42,6.42s9.3-2.02,11.82-6.06c2.52-4.04,3.78-9.46,3.78-16.26,0-8.16-1.44-14.46-4.32-18.9-2.88-4.44-6.98-6.66-12.3-6.66s-9.28,2.1-11.88,6.3c-2.6,4.2-3.9,9.78-3.9,16.74,0,8,1.46,14.14,4.38,18.42Z"/>
    <path d="M518.77,59.74v.84c1.92-4.96,4.8-8.96,8.64-12,3.84-3.04,7.96-4.56,12.36-4.56.4.96.6,2.14.6,3.54s-.28,3.06-.84,4.98c-6.64,0-12.08,2.2-16.32,6.6-2.4,2.64-3.88,5.92-4.44,9.84v24.96c3.6,1.44,7.8,2.28,12.6,2.52,0,1.52-.16,2.72-.48,3.6h-28.92c-.08-.96-.04-2.16.12-3.6,3.04-.4,5.14-1,6.3-1.8,1.16-.8,1.74-2.2,1.74-4.2v-38.04c-2.32-.08-4.12-.12-5.4-.12h-3c0-.96.16-2,.48-3.12,5.28-2.08,10.48-3.56,15.6-4.44.64,4.08.96,9.08.96,15Z"/>
    <path d="M551.65,117.46V52.42c-2.32-.08-4.12-.12-5.4-.12h-2.88c.16-1.52.36-2.56.6-3.12,5.2-2.08,10.28-3.56,15.24-4.44.64,2.88,1.04,6.28,1.2,10.2,2.88-7.28,8.08-10.92,15.6-10.92,6,0,11.22,2.4,15.66,7.2,4.44,4.8,6.66,11.72,6.66,20.76s-2.9,16.22-8.7,21.54c-5.8,5.32-12.66,7.98-20.58,7.98-2.88,0-5.72-.48-8.52-1.44v20.64c3.2,1.44,6.96,2.36,11.28,2.76,0,1.76-.08,2.96-.24,3.6h-28.08c-.16-1.36-.04-2.56.36-3.6,2.96-.4,5-1,6.12-1.8,1.12-.8,1.68-2.2,1.68-4.2ZM570.25,96.1c5.12,0,9.48-2.1,13.08-6.3,3.6-4.2,5.4-10.16,5.4-17.88s-1.38-13.34-4.14-16.86c-2.76-3.52-5.9-5.28-9.42-5.28s-6.56,1.08-9.12,3.24c-2.56,2.16-4.4,5.32-5.52,9.48v31.68c3.04,1.28,6.28,1.92,9.72,1.92Z"/>
    <path d="M653.05,61.9v32.76c2.56.96,5.36,1.56,8.4,1.8,0,1.12-.08,2.32-.24,3.6h-24.48c-.08-.96-.04-2.16.12-3.6,2.88-.32,4.86-.88,5.94-1.68,1.08-.8,1.62-2.2,1.62-4.2v-27.96c0-3.92-.92-6.92-2.76-9-1.84-2.08-4.4-3.12-7.68-3.12-6.96,0-12.16,4.16-15.6,12.48v31.68c2.24.96,4.96,1.56,8.16,1.8,0,1.44-.12,2.64-.36,3.6h-24.6c-.16-1.2-.08-2.4.24-3.6,2.96-.32,5.02-.88,6.18-1.68,1.16-.8,1.74-2.2,1.74-4.2V22.42c-2.32-.08-4.12-.12-5.4-.12h-3c0-.88.16-1.96.48-3.24,5.76-2.16,11.28-3.6,16.56-4.32v41.64c4.16-8.24,10.36-12.36,18.6-12.36,4.72,0,8.58,1.52,11.58,4.56,3,3.04,4.5,7.48,4.5,13.32Z"/>
    <path d="M672.85,90.58v-38.04c-1.28-.08-2.62-.12-4.02-.12s-2.86.04-4.38.12c0-.8.16-1.92.48-3.36,5.6-2.08,11.12-3.56,16.56-4.44v49.92c2.24.96,4.96,1.56,8.16,1.8,0,1.44-.12,2.64-.36,3.6h-24.6c-.16-1.2-.08-2.4.24-3.6,2.96-.32,5.02-.88,6.18-1.68,1.16-.8,1.74-2.2,1.74-4.2ZM681.55,32.02c-1.24,1.28-2.74,1.92-4.5,1.92s-3.28-.64-4.56-1.92c-1.28-1.28-1.92-2.8-1.92-4.56s.64-3.28,1.92-4.56c1.28-1.28,2.8-1.92,4.56-1.92s3.26.62,4.5,1.86c1.24,1.24,1.86,2.76,1.86,4.56s-.62,3.34-1.86,4.62Z"/>
    <path d="M737.77,92.74c-6.24,5.84-12.94,8.76-20.1,8.76s-13.12-2.54-17.88-7.62c-4.76-5.08-7.14-11.92-7.14-20.52s2.6-15.64,7.8-21.12c5.2-5.48,11.88-8.22,20.04-8.22,6.4,0,11.8,1.56,16.2,4.68,0,4.16-.36,8.48-1.08,12.96l-2.52-.36c0-3.84-1.24-6.86-3.72-9.06-2.48-2.2-5.68-3.3-9.6-3.3-5.36,0-9.66,2.14-12.9,6.42-3.24,4.28-4.86,10.02-4.86,17.22s1.58,12.88,4.74,17.04c3.16,4.16,7.42,6.24,12.78,6.24s10.92-1.68,16.68-5.04l1.56,1.92Z"/>
  </g>
</svg>