<?xml version="1.0" encoding="UTF-8"?>
<svg id="Layer_2" data-name="Layer 2" xmlns="http://www.w3.org/2000/svg" width="190.31" height="190.31" viewBox="0 0 190.31 190.31">
  <defs>
    <style>
      .cls-icon {
        fill: #000;
      }
      @media (prefers-color-scheme: dark) {
        .cls-icon {
          fill: #fff;
        }
      }
    </style>
  </defs>
  <g id="Layer_1-2" data-name="Layer 1">
    <path class="cls-icon" d="M140.31,0H50C22.39,0,0,22.38,0,50v90.31c0,27.61,22.39,50,50,50h90.31c27.61,0,50-22.39,50-50V50c0-27.62-22.39-50-50-50ZM160.09,109.79c-.8,5.99-2.62,15.42-8.88,15.42l-4.72.68c-1.1,0-2.77,1.37-2.77,2.46l-.36,3.96c0,7.17-4.17,11.25-11.33,11.25l-6.75.53c-1.1,0-2.44,1.42-2.89,2.42-1.87,4.09-2.56,5.9-4.77,8.12-2.04,2.04-3.99,2.9-7.92,3.31-5.69.58-7.28.54-9.28.66-.39.02-1.22.03-2.16.05-.02.02-.03.03-.03.03h-1.32s-.51-.01-1.18-.01h-.36c-.96,0-2.22-.01-3.31-.03h-.01c-.94-.01-1.76-.02-2.15-.04-1.99-.12-3.59-.08-9.28-.66-3.93-.41-5.88-1.27-7.92-3.31-2.21-2.22-2.9-4.03-4.77-8.12-.45-1-1.79-2.42-2.89-2.42l-6.74-.53c-7.17,0-11.34-4.08-11.34-11.25l-.36-3.96c0-1.09-1.67-2.46-2.77-2.46l-4.72-.68c-6.26,0-8.08-9.43-8.88-15.42l-.16-4.04c0-1.99,3.01-3.65,5-3.65h7.53c1.99,0,4.28,1.63,4.28,3.62l.02,10.1c0,.54.06,3.31.58,5.24.17.65.86,2.04,1.62,2.57,1.88,1.29,4.74.81,6.77.83l7.27.28c3.39.47,5.52,1.7,6.22,4.76l.52,10.11c.26,1.93,2.93,3.99,4.52,3.88l20.37.08s.24-.01.42.01c.16-.02.32-.01.36-.01l20.37-.08c1.59.11,4.26-1.95,4.52-3.88l.52-10.11c.7-3.06,2.83-4.29,6.22-4.76l7.27-.28c2.03-.02,4.89.46,6.77-.83.76-.53,1.45-1.92,1.62-2.57.52-1.93.58-4.7.58-5.24l.02-10.1c0-1.99,2.29-3.62,4.28-3.62h7.53c1.99,0,5,1.66,5,3.65l-.16,4.04ZM155.25,88.2h-7.53c-1.99,0-4.28-1.63-4.28-3.62l-.02-10.1c0-.54-.06-3.31-.58-5.24-.17-.65-.86-2.04-1.62-2.57-1.88-1.29-4.74-.81-6.77-.83l-7.27-.28c-3.39-.47-5.52-1.7-6.22-4.76l-.52-10.11c-.26-1.93-2.93-3.99-4.52-3.88l-20.37-.08s-.2.01-.36-.01c-.18.02-.37.01-.42.01l-20.37.08c-1.59-.11-4.26,1.95-4.52,3.88l-.52,10.11c-.7,3.06-2.83,4.29-6.22,4.76l-7.27.28c-2.03.02-4.89-.46-6.77.83-.76.53-1.45,1.92-1.62,2.57-.52,1.93-.58,4.7-.58,5.24l-.02,10.1c0,1.99-2.29,3.62-4.28,3.62h-7.53c-1.99,0-5-1.66-5-3.65l.16-4.04c.8-5.99,2.62-15.42,8.88-15.42l4.72-.68c1.1,0,2.77-1.37,2.77-2.46l.36-3.96c0-7.17,4.17-11.25,11.34-11.25l6.74-.53c1.1,0,2.44-1.42,2.89-2.42,1.87-4.09,2.56-5.9,4.77-8.12,2.04-2.04,3.99-2.9,7.92-3.31,5.69-.58,7.29-.54,9.28-.66.39-.02,1.21-.03,2.15-.04h.01c1.09-.02,2.35-.03,3.31-.03h.36c.67,0,1.14,0,1.18-.01h1.32l.03.03c.94.02,1.77.03,2.16.05,2,.12,3.59.08,9.28.66,3.93.41,5.88,1.27,7.92,3.31,2.21,2.22,2.9,4.03,4.77,8.12.45,1,1.79,2.42,2.89,2.42l6.75.53c7.16,0,11.33,4.08,11.33,11.25l.36,3.96c0,1.09,1.67,2.46,2.77,2.46l4.72.68c6.26,0,8.08,9.43,8.88,15.42l.16,4.04c0,1.99-3.01,3.65-5,3.65Z"/>
  </g>
</svg>
